<svg width="107" height="65" viewBox="0 0 107 65" fill="none" xmlns="http://www.w3.org/2000/svg">
<path d="M35.715 11.0597C35.5002 11.2554 37.3932 13.6897 37.851 13.8799C38.7149 14.2382 40.843 14.486 41.8801 14.674C45.5109 15.3343 49.1767 15.8419 52.8109 16.48L37.9646 14.8211C38.3246 15.6019 39.6912 17.3615 40.5191 17.5617C42.2074 17.9698 45.0734 18.076 46.9079 18.2474C49.2093 18.463 51.5297 18.5261 53.8243 18.8026L40.7778 18.4708C41.5944 19.4308 42.5696 20.3167 43.7652 20.7856L55.7365 20.9039L44.1522 21.5675C44.9969 22.4545 46.2567 23.1701 47.4692 23.4476L57.5362 22.7841L47.864 24.2218C48.8077 24.9595 50.0045 25.4439 51.19 25.7613L60.0107 24.443L52.1934 26.4349L52.0258 26.6527C53.0955 27.0609 54.1415 27.7654 55.3428 27.6481L62.4853 25.9914L55.8501 28.4245C55.7039 28.565 57.5429 29.1168 57.7375 29.1666C59.3932 29.5858 59.8308 29.2319 61.3571 28.6955C62.5876 28.263 63.7631 27.6393 65.0735 27.4291L60.3493 30.1918L62.9746 30.8156L68.3343 29.3093L66.9901 30.1432C66.3501 30.4683 65.4739 30.6718 64.88 31.0512C64.7709 31.1209 64.6787 31.039 64.7349 31.2989C65.6572 31.4018 66.5683 31.6484 67.4929 31.7402C68.3579 31.8265 69.5569 31.8961 70.4151 31.8508C70.8324 31.8287 71.3656 31.7004 71.7986 31.6628C71.9224 31.6517 72.1811 31.5312 72.1586 31.7402C68.1082 32.8429 63.6 32.3242 59.7093 30.8775C58.8522 30.559 58.5046 30.5646 57.6487 30.36C57.2077 30.2549 56.0199 29.6477 55.7939 29.6477C55.5396 29.6477 53.524 30.4064 52.9965 30.5391C50.676 31.1242 48.1756 31.4825 45.782 31.6296C44.2005 31.7269 42.3187 31.488 40.7823 32.0222C40.3728 32.1649 38.797 33.5662 38.4708 33.9521C35.922 36.9604 37.5867 40.3634 33.6612 42.8264C31.9256 43.9158 30.316 43.9877 28.3465 44.3471C27.3072 47.8376 25.2195 51.1146 22.8912 53.9138C22.6752 54.1737 21.2164 55.8503 21.0938 55.9067C20.492 56.181 19.4279 55.3759 18.8554 56.0284L16.9343 60.8294C17.8836 60.4766 18.8442 60.1293 19.7474 59.6703C20.4189 59.3297 21.7012 58.6163 22.2242 58.1242C24.4715 56.0151 26.6874 52.7923 28.7975 50.4311C29.6737 49.4512 30.6096 48.5288 31.5522 47.612L30.4307 47.3366C34.3417 46.8002 38.2593 46.1477 41.7541 44.2576C45.863 42.0357 48.7481 37.9215 50.2283 33.6226C50.4398 33.5971 50.306 33.8415 50.288 33.9577C49.4736 39.2287 45.7201 43.4657 40.8543 45.5858C38.4933 46.6144 36.3393 46.8931 33.8929 47.4792C33.7804 47.5058 33.5543 47.5113 33.5813 47.6673C37.5845 47.6617 41.5348 47.3543 45.3062 45.9818C48.5951 44.7851 51.4589 42.7247 53.8243 40.2031L49.7795 38.3196C49.5107 38.1227 50.4252 37.6372 50.5332 37.6206C50.8301 37.5742 51.9707 38.2709 52.3655 38.4313C58.7026 41.0082 65.1781 41.2847 71.9347 40.3668L68.9529 36.9416L74.0122 40.5868C75.1348 40.0847 76.236 39.5351 77.336 38.9876C79.2426 38.0387 83.3773 35.4695 85.2006 35.1079C86.0802 34.9331 86.4177 34.9553 87.0037 35.5602C88.5514 37.1583 89.4569 39.7452 90.1025 41.8034C90.2836 42.3829 90.7999 42.6307 90.1588 43.3009C89.8573 43.6161 89.3388 43.6504 88.9743 43.9059C88.088 44.5296 88.4738 45.295 88.6796 46.1886C88.8967 47.1342 89.2713 48.0477 89.4827 48.9944C89.7684 49.2842 92.0225 45.0229 92.1654 44.721C92.4691 44.0784 93.2306 42.6207 93.1856 41.9881C93.1541 41.5402 92.8808 41.0945 92.6896 40.6974C91.4208 38.0641 89.5907 34.2751 88.0779 31.8497C87.8574 31.4969 87.7483 31.154 87.2804 31.0833C86.5268 30.9693 83.1018 31.9426 82.1232 32.1925C80.5811 32.5863 78.7994 32.9822 77.336 33.5684C77.1583 33.6392 76.3777 34.1125 76.3215 34.0627C76.3934 33.6436 77.3135 33.3616 77.2056 32.9291C77.0784 32.4226 75.4936 30.8178 75.0246 30.4164C69.7189 25.8741 61.0242 24.5669 57.742 17.5484C57.3821 16.7798 57.201 15.9779 56.8579 15.2104L35.7162 11.0597H35.715Z" fill="black"/>
<path d="M70.471 9.40073C70.714 9.69713 71.2055 9.89289 71.5553 10.0477C74.5687 11.3826 78.1883 11.3107 81.4423 11.3859L83.5176 11.6105C77.1726 11.9467 70.7803 11.4424 64.5096 10.5056C64.3948 10.6383 64.8043 10.9635 64.9055 11.0553C67.7355 13.6078 74.2571 12.8503 77.8384 12.608C78.4852 12.5649 79.1601 12.5782 79.8046 12.5505C79.0206 12.8668 78.0038 12.9376 77.1478 13.0349C71.5227 13.672 65.7255 13.7505 60.1206 12.9387C61.6346 15.3531 64.5849 15.2358 67.1551 15.154C67.3947 15.1462 67.6095 15.0489 67.8266 15.0401C70.1032 14.9416 72.3697 14.7868 74.6294 14.4871L72.4034 15.0069C68.3564 15.6926 64.2137 16.1637 60.1195 15.5931C61.5491 17.9499 63.9798 17.4931 66.3475 17.2365C67.7985 17.0795 69.2495 16.8008 70.6915 16.5884L69.119 17.0861C67.6343 17.3659 66.1653 17.8315 64.6603 18.0107C63.3386 18.1677 62.0058 18.1622 60.6819 18.0793C62.3623 20.1585 64.8717 19.2151 67.0921 18.7993C67.0572 19.0083 66.8559 18.9806 66.7119 19.0326C65.4926 19.4794 63.7042 20.0601 62.4242 20.1342C62.1992 20.1474 62.0058 20.1143 61.8067 20.0147C61.6908 20.1474 62.1014 20.4726 62.2026 20.5644C62.4186 20.759 64.1901 22.0044 64.3161 21.9822C68.6038 18.9629 73.058 16.0377 78.0015 14.1531L73.6936 16.6072C70.7646 18.5194 67.8716 20.6993 65.3453 23.1081C65.2137 23.2331 65.0326 23.3459 65.0675 23.5516C66.2114 24.0526 67.2248 24.8025 68.3271 25.3809C69.8591 26.1849 71.4957 26.7998 73.0164 27.6271C75.3256 28.8813 77.3132 30.4716 79.0903 32.3861L79.412 32.2943C79.5875 32.0355 79.2737 30.6586 79.2422 30.2438C78.8553 25.3289 80.0352 19.1609 84.3004 16.0885C83.7009 15.4758 83.5581 14.6497 83.6278 13.8213C83.9776 13.7505 83.8415 14.2692 83.9585 14.5457C84.1643 15.0312 84.6131 15.5964 85.036 15.9193C87.4746 17.7807 90.3417 14.5136 93.1132 16.0509C93.3224 16.1671 93.4237 16.3816 93.6846 16.4834C95.0096 17.0032 97.0433 15.4802 95.734 14.1918C94.6756 13.15 88.6107 11.4501 86.9133 11.0862C85.9629 10.8827 85.5872 10.7589 84.6986 10.499C80.0239 9.13088 75.2345 10.134 70.4654 9.39852L70.471 9.40073ZM85.7683 12.1645H87.3992L88.4104 12.8303C87.7277 12.524 87.2272 12.7408 86.5264 12.691L85.7683 12.1645ZM93.7544 14.267C94.0817 14.2615 94.5912 14.267 94.7656 14.5966C94.4832 14.4992 93.9107 14.5357 93.7544 14.267Z" fill="black"/>
<path d="M29.8654 34.9486L10.0711 44.1824L12.3084 45.285L12.7639 45.1766L31.8349 35.1709L13.8358 45.8955C13.6885 46.0349 13.9067 46.0194 14.0079 46.0581C14.6569 46.3036 16.3194 46.819 16.9369 46.621L33.8595 35.2815L18.3935 46.7836L18.4633 47.0026L22.0255 47.0911L39.0898 32.1848C35.6705 32.5984 32.2758 33.3505 28.9936 34.3669C22.4259 36.3986 15.3813 39.169 8.9182 41.6132C8.70899 41.6917 7.25687 42.216 7.26137 42.3044L9.17016 43.4204L29.8676 34.9508L29.8654 34.9486ZM32.0587 35.0581V35.1687C31.9856 35.1322 31.9856 35.0946 32.0587 35.0581Z" fill="black"/>
<path d="M3.4327 2.76492C3.86238 4.29448 4.7431 5.92578 5.79816 7.12908C7.35376 8.90416 9.29629 8.96388 11.5099 9.47594L36.0508 13.7129L35.3028 10.9425L7.99602 4.30443L3.4327 2.76492Z" fill="black"/>
<path d="M8.9459 11.0597C9.87386 12.2685 11.5926 14.4639 12.9558 15.1341C14.3832 15.8364 18.5056 15.8784 20.2501 16.0354C26.3769 16.5873 32.5105 17.0839 38.6406 17.5827L36.5586 14.7094C31.0538 13.8169 25.4512 13.1079 19.8981 12.4001C16.2504 11.9345 12.5914 11.5364 8.9459 11.0597Z" fill="black"/>
<path d="M15.6937 17.5849C16.3281 18.1158 16.9951 18.6477 17.6823 19.1111C18.8251 19.8809 20.0928 20.7657 21.4875 20.8995C27.7954 21.5078 34.6893 20.6728 41.0624 21.0156L41.7891 20.8995L39.1435 18.4697C31.3205 18.0925 23.5234 17.8293 15.6937 17.5838V17.5849Z" fill="black"/>
<path d="M23.7922 22.6723C24.5109 23.1833 25.476 23.6644 26.3038 24.0172C28.9336 25.1409 29.9819 25.1829 32.8457 24.9927C34.6364 24.8732 36.4552 24.5934 38.247 24.4419C40.7002 24.2329 43.1646 24.1212 45.6133 23.8867L42.4121 21.782C36.1953 21.8993 30.0022 22.4556 23.7922 22.6723Z" fill="black"/>
<path d="M74.5185 41.3632C74.4915 41.5181 74.7187 41.5247 74.8301 41.5513C79.1245 42.5599 83.6226 43.0841 87.6224 45.0107C87.8024 44.0308 88.3749 43.4203 89.25 42.9658C89.2511 42.8408 87.5718 41.455 87.3277 41.319C86.7203 40.9817 85.834 40.776 85.1625 40.4619C83.6294 39.743 82.1323 38.9434 80.625 38.1758C78.8242 39.0905 77.1022 40.1622 75.307 41.0879C75.0573 41.2162 74.8143 41.3632 74.5185 41.3632Z" fill="black"/>
<path d="M91.8419 47.2227C93.8182 47.9504 95.3423 49.6801 97.3512 50.2685C97.6909 50.5417 97.4097 51.8423 98.3343 52.288C98.7291 52.4782 99.9641 52.6286 100.441 52.6496C101.566 52.7005 102.66 52.4771 103.764 52.3123C103.89 52.194 103.106 51.4851 102.979 51.3711C102.412 50.8613 101.583 50.2674 100.943 49.8338C98.377 48.0975 95.5628 46.7239 92.9105 45.1257L91.8419 47.2238V47.2227Z" fill="black"/>
<path d="M33.1295 26.5432C33.1599 26.7346 33.3533 26.7357 33.4928 26.7932C34.8414 27.3606 38.0629 28.148 39.4902 28.0938L49.6641 26.2656C49.2096 25.9947 48.7057 25.8166 48.2389 25.5656C47.726 25.2891 46.7441 24.5437 46.2345 24.5414L33.1295 26.5432Z" fill="black"/>
<path d="M43.4764 28.9741C44.69 29.1046 45.9149 29.3281 47.1331 29.4165C47.718 29.4586 48.7326 29.5681 49.268 29.5271C50.6155 29.4243 52.3409 28.6036 53.7109 28.367L50.6414 26.9005C48.6572 27.3882 46.6686 27.887 44.7137 28.4776C44.3312 28.5926 43.7351 28.6965 43.4764 28.9741Z" fill="black"/>
<path d="M32.0586 35.0581C31.9855 35.0946 31.9855 35.1322 32.0586 35.1687V35.0581Z" fill="black"/>
<path d="M99.873 2.92276C101.706 2.92288 103.193 4.41028 103.193 6.24503C103.193 8.07967 101.706 9.56717 99.873 9.56729C98.0396 9.56729 96.5529 8.07974 96.5527 6.24503C96.5527 4.4102 98.0395 2.92276 99.873 2.92276Z" stroke="black" stroke-width="0.39447"/>
<path d="M101.251 7.06259L101.28 7.58835C101.284 7.75699 101.32 7.89422 101.39 8.00003H100.7C100.641 7.90083 100.609 7.7603 100.606 7.57843L100.591 7.19155C100.581 6.97662 100.531 6.82782 100.442 6.74515C100.356 6.65918 100.217 6.61619 100.026 6.61619H99.1526V8.00003H98.483V4.46851H100.085C100.479 4.46851 100.784 4.55779 101.003 4.73635C101.221 4.91491 101.33 5.15795 101.33 5.46547C101.33 5.88872 101.133 6.16979 100.74 6.30867C100.918 6.36488 101.046 6.45416 101.122 6.57651C101.201 6.69555 101.244 6.85758 101.251 7.06259ZM99.1526 5.01907V6.09043H100.045C100.234 6.09043 100.379 6.04414 100.482 5.95155C100.588 5.85566 100.641 5.71843 100.641 5.53987C100.641 5.37123 100.586 5.24227 100.477 5.15299C100.371 5.06371 100.219 5.01907 100.021 5.01907H99.1526Z" fill="black"/>
</svg>
