<svg xmlns="http://www.w3.org/2000/svg" width="861" height="369" viewBox="0 0 861 369" fill="none"><path d="M0.296875 168.5H860.297" stroke="#555555" stroke-opacity="0.2"></path><path d="M0.296875 172.5H860.297" stroke="#555555" stroke-opacity="0.2"></path><path d="M0.296875 176.5H860.297" stroke="#555555" stroke-opacity="0.2"></path><path d="M0.296875 188.5H860.297" stroke="#555555" stroke-opacity="0.2"></path><path d="M0.296875 180.5H860.297" stroke="#555555" stroke-opacity="0.2"></path><path d="M0.296875 184.5H860.297" stroke="#555555" stroke-opacity="0.2"></path><path d="M0.296875 192.5H860.297" stroke="#555555" stroke-opacity="0.2"></path><path d="M0.296875 196.5H860.297" stroke="#555555" stroke-opacity="0.2"></path><path d="M0.296875 200.5H860.297" stroke="#555555" stroke-opacity="0.2"></path><path d="M0.296875 204.5H860.297" stroke="#555555" stroke-opacity="0.2"></path><path d="M0.296875 208.5H860.297" stroke="#555555" stroke-opacity="0.2"></path><path d="M0.296875 212.5H860.297" stroke="#555555" stroke-opacity="0.2"></path><path d="M0.296875 220.5H860.297" stroke="#555555" stroke-opacity="0.2"></path><path d="M0.296875 216.5H860.297" stroke="#555555" stroke-opacity="0.2"></path><path d="M0.296875 224.5H860.297" stroke="#555555" stroke-opacity="0.2"></path><path d="M0.296875 228.5H860.297" stroke="#555555" stroke-opacity="0.2"></path><path d="M0.296875 240.5H860.297" stroke="#555555" stroke-opacity="0.2"></path><path d="M0.296875 232.5H860.297" stroke="#555555" stroke-opacity="0.2"></path><path d="M0.296875 236.5H860.297" stroke="#555555" stroke-opacity="0.2"></path><path d="M0.296875 244.5H860.297" stroke="#555555" stroke-opacity="0.2"></path><path d="M0.296875 248.5H860.297" stroke="#555555" stroke-opacity="0.2"></path><path d="M0.296875 252.5H860.297" stroke="#555555" stroke-opacity="0.2"></path><path d="M0.296875 256.5H860.297" stroke="#555555" stroke-opacity="0.2"></path><path d="M0.296875 260.5H860.297" stroke="#555555" stroke-opacity="0.2"></path><path d="M0.296875 264.5H860.297" stroke="#555555" stroke-opacity="0.2"></path><path d="M0.296875 272.5H860.297" stroke="#555555" stroke-opacity="0.2"></path><path d="M0.296875 268.5H860.297" stroke="#555555" stroke-opacity="0.2"></path><path d="M0.296875 276.5H860.297" stroke="#555555" stroke-opacity="0.2"></path><path d="M0.296875 280.5H860.297" stroke="#555555" stroke-opacity="0.2"></path><path d="M0.296875 292.5H860.297" stroke="#555555" stroke-opacity="0.2"></path><path d="M0.296875 284.5H860.297" stroke="#555555" stroke-opacity="0.2"></path><path d="M0.296875 288.5H860.297" stroke="#555555" stroke-opacity="0.2"></path><path d="M0.296875 296.5H860.297" stroke="#555555" stroke-opacity="0.2"></path><path d="M0.296875 300.5H860.297" stroke="#555555" stroke-opacity="0.2"></path><path d="M0.296875 304.5H860.297" stroke="#555555" stroke-opacity="0.2"></path><path d="M0.296875 308.5H860.297" stroke="#555555" stroke-opacity="0.2"></path><path d="M0.296875 312.5H860.297" stroke="#555555" stroke-opacity="0.2"></path><path d="M0.296875 316.5H860.297" stroke="#555555" stroke-opacity="0.2"></path><path d="M0.296875 324.5H860.297" stroke="#555555" stroke-opacity="0.2"></path><path d="M0.296875 320.5H860.297" stroke="#555555" stroke-opacity="0.2"></path><path d="M0.296875 328.5H860.297" stroke="#555555" stroke-opacity="0.2"></path><path d="M0.296875 332.5H860.297" stroke="#555555" stroke-opacity="0.2"></path><path d="M0.296875 344.5H860.297" stroke="#555555" stroke-opacity="0.2"></path><path d="M0.296875 336.5H860.297" stroke="#555555" stroke-opacity="0.2"></path><path d="M0.296875 340.5H860.297" stroke="#555555" stroke-opacity="0.2"></path><path d="M0.296875 348.5H860.297" stroke="#555555" stroke-opacity="0.2"></path><path d="M0.296875 352.5H860.297" stroke="#555555" stroke-opacity="0.2"></path><path d="M0.296875 356.5H860.297" stroke="#555555" stroke-opacity="0.2"></path><path d="M0.296875 360.5H860.297" stroke="#555555" stroke-opacity="0.2"></path><path d="M0.296875 364.5H860.297" stroke="#555555" stroke-opacity="0.2"></path><path d="M526.297 0.5H860.297" stroke="#555555" stroke-opacity="0.2"></path><path d="M482.297 8.5C816.799 8.5 525.795 8.5 860.297 8.5" stroke="#555555" stroke-opacity="0.2"></path><path d="M341.297 4.5H860.297" stroke="#555555" stroke-opacity="0.2"></path><path d="M267.297 12.5C603.256 12.5 524.338 12.5 860.297 12.5" stroke="#555555" stroke-opacity="0.2"></path><path d="M421.297 16.5C756.846 16.5 524.746 16.5 860.297 16.5" stroke="#555555" stroke-opacity="0.2"></path><path d="M241.297 28.5H860.297" stroke="#555555" stroke-opacity="0.2"></path><path d="M585.297 20.5H860.297" stroke="#555555" stroke-opacity="0.2"></path><path d="M215.297 24.5H860.297" stroke="#555555" stroke-opacity="0.2"></path><path d="M0.296875 32.5H860.297" stroke="#555555" stroke-opacity="0.2"></path><path d="M289.297 36.5C624.792 36.5 524.802 36.5 860.297 36.5" stroke="#555555" stroke-opacity="0.2"></path><path d="M167.297 40.5H860.297" stroke="#555555" stroke-opacity="0.2"></path><path d="M163.297 44.5C499.168 44.5 524.425 44.5 860.297 44.5" stroke="#555555" stroke-opacity="0.2"></path><path d="M582.297 48.5H860.297" stroke="#555555" stroke-opacity="0.2"></path><path d="M36.2969 52.5H860.297" stroke="#555555" stroke-opacity="0.2"></path><path d="M74.2969 60.5C410.089 60.5 524.505 60.5 860.297 60.5" stroke="#555555" stroke-opacity="0.2"></path><path d="M459.297 56.5H860.297" stroke="#555555" stroke-opacity="0.2"></path><path d="M591.297 64.5H860.297" stroke="#555555" stroke-opacity="0.2"></path><path d="M107.297 68.5H860.297" stroke="#555555" stroke-opacity="0.2"></path><path d="M0.296875 80.5H860.297" stroke="#555555" stroke-opacity="0.2"></path><path d="M275.297 72.5H860.297" stroke="#555555" stroke-opacity="0.2"></path><path d="M0.296875 76.5H860.297" stroke="#555555" stroke-opacity="0.2"></path><path d="M295.297 84.5C630.559 84.5 525.035 84.5 860.297 84.5" stroke="#555555" stroke-opacity="0.2"></path><path d="M86.2969 88.5C422.174 88.5 524.418 88.5 860.297 88.5" stroke="#555555" stroke-opacity="0.2"></path><path d="M313.297 92.5H860.297" stroke="#555555" stroke-opacity="0.2"></path><path d="M196.297 96.5H860.297" stroke="#555555" stroke-opacity="0.2"></path><path d="M0.296875 100.5H860.297" stroke="#555555" stroke-opacity="0.2"></path><path d="M0.296875 104.5H860.297" stroke="#555555" stroke-opacity="0.2"></path><path d="M0.296875 112.5H860.297" stroke="#555555" stroke-opacity="0.2"></path><path d="M0.296875 108.5H860.297" stroke="#555555" stroke-opacity="0.2"></path><path d="M0.296875 116.5H860.297" stroke="#555555" stroke-opacity="0.2"></path><path d="M0.296875 120.5H860.297" stroke="#555555" stroke-opacity="0.2"></path><path d="M0.296875 132.5H860.297" stroke="#555555" stroke-opacity="0.2"></path><path d="M395.297 124.5H860.297" stroke="#555555" stroke-opacity="0.2"></path><path d="M0.296875 128.5H860.297" stroke="#555555" stroke-opacity="0.2"></path><path d="M0.296875 136.5H860.297" stroke="#555555" stroke-opacity="0.2"></path><path d="M0.296875 140.5H860.297" stroke="#555555" stroke-opacity="0.2"></path><path d="M0.296875 144.5H860.297" stroke="#555555" stroke-opacity="0.2"></path><path d="M0.296875 148.5H860.297" stroke="#555555" stroke-opacity="0.2"></path><path d="M0.296875 152.5H860.297" stroke="#555555" stroke-opacity="0.2"></path><path d="M0.296875 156.5H860.297" stroke="#555555" stroke-opacity="0.2"></path><path d="M0.296875 164.5H860.297" stroke="#555555" stroke-opacity="0.2"></path><path d="M248.297 160.5H860.297" stroke="#555555" stroke-opacity="0.2"></path><mask id="mask0_105_539" style="mask-type:alpha" maskUnits="userSpaceOnUse" x="526" y="168" width="334" height="194"><path d="M633.492 196.156C632.78 196.805 639.055 204.874 640.572 205.505C643.436 206.692 650.49 207.514 653.927 208.137C665.963 210.325 678.114 212.008 690.16 214.123L640.949 208.624C642.142 211.212 646.672 217.045 649.416 217.709C655.012 219.061 664.512 219.413 670.593 219.982C678.222 220.696 685.913 220.905 693.519 221.822L650.274 220.722C652.98 223.904 656.213 226.841 660.176 228.395L699.858 228.787L661.459 230.987C664.259 233.927 668.435 236.299 672.454 237.219L705.823 235.019L673.763 239.785C676.891 242.23 680.858 243.836 684.788 244.888L714.026 240.518L688.113 247.121L687.558 247.843C691.103 249.196 694.571 251.531 698.553 251.143L722.228 245.651L700.234 253.716C699.75 254.182 705.846 256.011 706.491 256.176C711.979 257.565 713.429 256.392 718.489 254.614C722.568 253.181 726.464 251.113 730.807 250.417L715.148 259.574L723.85 261.642L741.616 256.649L737.161 259.413C735.039 260.491 732.135 261.165 730.166 262.423C729.804 262.654 729.499 262.382 729.685 263.244C732.742 263.585 735.762 264.402 738.827 264.707C741.694 264.993 745.669 265.224 748.514 265.073C749.897 265 751.664 264.575 753.1 264.45C753.51 264.413 754.367 264.014 754.293 264.707C740.867 268.362 725.923 266.642 713.027 261.847C710.185 260.791 709.033 260.81 706.196 260.132C704.735 259.783 700.797 257.771 700.048 257.771C699.205 257.771 692.524 260.286 690.775 260.725C683.084 262.665 674.795 263.853 666.861 264.34C661.619 264.663 655.381 263.871 650.288 265.642C648.931 266.114 643.708 270.759 642.627 272.039C634.178 282.01 639.696 293.29 626.684 301.455C620.931 305.066 615.596 305.304 609.067 306.495C605.622 318.065 598.702 328.928 590.984 338.206C590.268 339.068 585.433 344.625 585.026 344.812C583.032 345.722 579.504 343.053 577.607 345.216L571.239 361.13C574.385 359.96 577.569 358.809 580.563 357.288C582.789 356.159 587.04 353.794 588.773 352.163C596.223 345.172 603.568 334.489 610.562 326.662C613.467 323.414 616.569 320.357 619.693 317.317L615.976 316.405C628.94 314.627 641.926 312.464 653.51 306.198C667.13 298.833 676.693 285.196 681.6 270.946C682.301 270.862 681.857 271.672 681.797 272.057C679.098 289.529 666.656 303.574 650.527 310.601C642.701 314.011 635.561 314.935 627.452 316.878C627.079 316.965 626.33 316.984 626.419 317.501C639.689 317.482 652.783 316.463 665.284 311.914C676.186 307.947 685.679 301.117 693.519 292.759L680.112 286.516C679.221 285.863 682.252 284.254 682.61 284.199C683.594 284.045 687.375 286.354 688.684 286.886C709.69 295.428 731.154 296.344 753.551 293.301L743.667 281.948L760.437 294.031C764.158 292.367 767.808 290.545 771.455 288.73C777.774 285.585 791.48 277.068 797.524 275.87C800.439 275.29 801.558 275.364 803.5 277.369C808.631 282.666 811.632 291.241 813.772 298.064C814.372 299.985 816.084 300.806 813.959 303.027C812.959 304.072 811.241 304.186 810.033 305.033C807.095 307.1 808.373 309.637 809.056 312.599C809.775 315.734 811.017 318.762 811.718 321.9C812.665 322.86 820.137 308.735 820.61 307.735C821.617 305.605 824.141 300.773 823.992 298.676C823.887 297.191 822.981 295.714 822.347 294.398C818.142 285.669 812.076 273.109 807.061 265.07C806.33 263.9 805.969 262.764 804.418 262.529C801.919 262.152 790.566 265.378 787.323 266.206C782.211 267.511 776.305 268.824 771.455 270.767C770.865 271.001 768.278 272.57 768.092 272.405C768.33 271.016 771.38 270.081 771.022 268.648C770.601 266.969 765.347 261.649 763.793 260.319C746.206 245.262 717.385 240.929 706.506 217.665C705.312 215.117 704.712 212.459 703.575 209.915L633.496 196.156H633.492Z" fill="black"></path><path d="M748.696 190.662C749.501 191.644 751.131 192.293 752.29 192.806C762.279 197.231 774.277 196.993 785.063 197.242L791.942 197.986C770.91 199.101 749.721 197.429 728.935 194.324C728.555 194.764 729.912 195.842 730.248 196.146C739.629 204.607 761.246 202.096 773.117 201.293C775.261 201.15 777.498 201.194 779.634 201.102C777.036 202.151 773.665 202.385 770.828 202.708C752.182 204.82 732.966 205.08 714.387 202.389C719.406 210.392 729.185 210.003 737.705 209.732C738.499 209.706 739.211 209.384 739.931 209.355C747.477 209.028 754.99 208.515 762.48 207.522L755.102 209.245C741.687 211.517 727.955 213.079 714.383 211.188C719.122 219 727.179 217.486 735.028 216.635C739.837 216.115 744.647 215.191 749.427 214.487L744.215 216.137C739.293 217.064 734.424 218.608 729.435 219.201C725.054 219.722 720.636 219.704 716.248 219.429C721.818 226.321 730.136 223.194 737.496 221.815C737.38 222.508 736.713 222.416 736.236 222.589C732.194 224.07 726.266 225.995 722.023 226.24C721.277 226.284 720.636 226.174 719.976 225.844C719.592 226.284 720.953 227.362 721.288 227.666C722.004 228.311 727.877 232.439 728.294 232.366C742.507 222.358 757.271 212.661 773.658 206.414L759.378 214.549C749.669 220.888 740.08 228.113 731.706 236.098C731.269 236.512 730.669 236.886 730.785 237.568C734.577 239.229 737.936 241.714 741.59 243.632C746.668 246.297 752.093 248.335 757.133 251.077C764.788 255.234 771.376 260.506 777.267 266.852L778.333 266.548C778.915 265.69 777.875 261.126 777.77 259.751C776.488 243.459 780.399 223.014 794.537 212.83C792.55 210.799 792.076 208.06 792.307 205.315C793.467 205.08 793.016 206.799 793.404 207.716C794.086 209.325 795.573 211.199 796.975 212.269C805.059 218.439 814.562 207.61 823.749 212.705C824.443 213.09 824.778 213.801 825.643 214.139C830.035 215.862 836.776 210.814 832.436 206.543C828.928 203.089 808.824 197.455 803.198 196.249C800.048 195.574 798.802 195.163 795.857 194.302C780.362 189.767 764.486 193.092 748.677 190.654L748.696 190.662ZM799.403 199.823H804.809L808.161 202.03C805.897 201.014 804.238 201.733 801.916 201.568L799.403 199.823ZM825.874 206.792C826.959 206.774 828.648 206.792 829.226 207.884C828.29 207.562 826.393 207.683 825.874 206.792Z" fill="black"></path><path d="M614.113 275.341L548.5 305.948L555.916 309.603L557.426 309.244L620.641 276.078L560.979 311.627C560.491 312.089 561.214 312.038 561.549 312.166C563.701 312.98 569.211 314.688 571.258 314.032L627.352 276.444L576.087 314.571L576.318 315.297L588.126 315.59L644.689 266.18C633.355 267.551 622.103 270.044 611.223 273.413C589.453 280.147 566.102 289.33 544.678 297.432C543.985 297.693 539.172 299.43 539.186 299.724L545.514 303.423L614.12 275.348L614.113 275.341ZM621.383 275.704V276.071C621.141 275.95 621.141 275.825 621.383 275.704Z" fill="black"></path><path d="M526.501 168.666C527.925 173.736 530.844 179.143 534.342 183.132C539.498 189.016 545.937 189.214 553.274 190.911L634.621 204.956L632.142 195.772L541.627 173.769L526.501 168.666Z" fill="black"></path><path d="M544.761 196.156C547.837 200.163 553.534 207.44 558.053 209.662C562.784 211.99 576.449 212.129 582.232 212.65C602.54 214.479 622.872 216.125 643.191 217.778L636.29 208.254C618.043 205.296 599.472 202.946 581.065 200.599C568.974 199.056 556.845 197.736 544.761 196.156Z" fill="black"></path><path d="M567.126 217.785C569.229 219.545 571.439 221.308 573.718 222.844C577.506 225.396 581.708 228.328 586.331 228.772C607.24 230.788 630.091 228.02 651.216 229.157L653.625 228.772L644.856 220.718C618.925 219.468 593.079 218.595 567.126 217.781V217.785Z" fill="black"></path><path d="M593.956 234.65C596.338 236.344 599.537 237.939 602.281 239.108C610.998 242.833 614.473 242.972 623.966 242.342C629.901 241.946 635.93 241.018 641.87 240.516C650.001 239.823 658.17 239.453 666.287 238.676L655.676 231.699C635.069 232.088 614.54 233.932 593.956 234.65Z" fill="black"></path><path d="M762.112 296.61C762.023 297.124 762.776 297.146 763.145 297.234C777.38 300.577 792.29 302.315 805.548 308.701C806.145 305.453 808.043 303.429 810.943 301.922C810.947 301.508 805.381 296.915 804.571 296.464C802.558 295.346 799.62 294.664 797.394 293.623C792.312 291.24 787.35 288.589 782.354 286.045C776.385 289.077 770.676 292.629 764.726 295.697C763.898 296.123 763.093 296.61 762.112 296.61Z" fill="black"></path><path d="M819.551 316.029C826.101 318.441 831.153 324.175 837.812 326.125C838.938 327.031 838.006 331.342 841.071 332.819C842.38 333.45 846.473 333.948 848.054 334.018C851.783 334.187 855.41 333.446 859.068 332.9C859.486 332.508 856.887 330.158 856.466 329.78C854.586 328.09 851.839 326.121 849.717 324.684C841.213 318.929 831.884 314.375 823.093 309.078L819.551 316.033V316.029Z" fill="black"></path><path d="M624.921 247.487C625.021 248.121 625.663 248.125 626.125 248.316C630.595 250.196 641.274 252.806 646.005 252.627L679.729 246.567C678.222 245.669 676.552 245.078 675.005 244.246C673.304 243.33 670.05 240.859 668.361 240.852L624.921 247.487Z" fill="black"></path><path d="M659.218 255.548C663.241 255.98 667.301 256.721 671.339 257.014C673.278 257.153 676.641 257.516 678.415 257.381C682.882 257.04 688.601 254.319 693.143 253.535L682.968 248.674C676.391 250.291 669.799 251.944 663.319 253.902C662.051 254.283 660.075 254.627 659.218 255.548Z" fill="black"></path><path d="M621.383 275.709C621.14 275.83 621.14 275.955 621.383 276.076V275.709Z" fill="black"></path></mask><g mask="url(#mask0_105_539)"><path d="M177.998 168.5H860.279" stroke="black"></path><path d="M177.998 172.5H860.279" stroke="black"></path><path d="M177.998 176.5H860.279" stroke="black"></path><path d="M177.998 188.5H860.279" stroke="black"></path><path d="M177.998 180.5H860.279" stroke="black"></path><path d="M177.998 184.5H860.279" stroke="black"></path><path d="M177.998 192.5H860.279" stroke="black"></path><path d="M177.998 196.5H860.279" stroke="black"></path><path d="M177.998 200.5H860.279" stroke="black"></path><path d="M177.998 204.5H860.279" stroke="black"></path><path d="M177.998 208.5H860.279" stroke="black"></path><path d="M177.998 212.5H860.279" stroke="black"></path><path d="M177.998 220.5H860.279" stroke="black"></path><path d="M177.998 216.5H860.279" stroke="black"></path><path d="M177.998 224.5H860.279" stroke="black"></path><path d="M177.998 228.5H860.279" stroke="black"></path><path d="M177.998 240.5H860.279" stroke="black"></path><path d="M177.998 232.5H860.279" stroke="black"></path><path d="M177.998 236.5H860.279" stroke="black"></path><path d="M177.998 244.5H860.279" stroke="black"></path><path d="M177.998 248.5H860.279" stroke="black"></path><path d="M177.998 252.5H860.279" stroke="black"></path><path d="M177.998 256.5H860.279" stroke="black"></path><path d="M177.998 260.5H860.279" stroke="black"></path><path d="M177.998 264.5H860.279" stroke="black"></path><path d="M177.998 272.5H860.279" stroke="black"></path><path d="M177.998 268.5H860.279" stroke="black"></path><path d="M177.998 276.5H860.279" stroke="black"></path><path d="M177.998 280.5H860.279" stroke="black"></path><path d="M177.998 292.5H860.279" stroke="black"></path><path d="M177.998 284.5H860.279" stroke="black"></path><path d="M177.998 288.5H860.279" stroke="black"></path><path d="M177.998 296.5H860.279" stroke="black"></path><path d="M177.998 300.5H860.279" stroke="black"></path><path d="M177.998 304.5H860.279" stroke="black"></path><path d="M177.998 308.5H860.279" stroke="black"></path><path d="M177.998 312.5H860.279" stroke="black"></path><path d="M177.998 316.5H860.279" stroke="black"></path><path d="M177.998 324.5H860.279" stroke="black"></path><path d="M177.998 320.5H860.279" stroke="black"></path><path d="M178.215 328.5H860.28" stroke="black"></path><path d="M177.998 332.5H860.279" stroke="black"></path><path d="M177.998 344.5H860.279" stroke="black"></path><path d="M177.998 336.5H860.279" stroke="black"></path><path d="M177.998 340.5H860.279" stroke="black"></path><path d="M177.998 348.5H860.279" stroke="black"></path><path d="M177.998 352.5H860.279" stroke="black"></path><path d="M177.998 356.5H860.279" stroke="black"></path><path d="M177.998 360.5H860.279" stroke="black"></path></g></svg>